<svg width="15" height="24" viewBox="0 0 15 24" fill="none" xmlns="http://www.w3.org/2000/svg">
<path d="M8.33304 17.572C7.99255 17.1418 7.63608 16.6786 7.28313 16.1907C6.82624 15.5605 6.4052 14.9398 6.02445 14.3338C5.74552 14.5773 5.48839 14.841 5.2543 15.1057C4.30192 16.1846 4.26701 17.8018 5.13987 18.9494C7.03702 21.4433 8.74747 23.1269 8.74747 23.1269L8.74882 23.1268C9.92638 21.5573 9.85902 19.3718 8.58847 17.8775C8.49936 17.771 8.41326 17.6683 8.33159 17.5707L8.33304 17.572ZM2.16186 14.3764C1.17521 12.4718 0.288725 10.1747 0.14242 8.23268C-0.170229 4.08263 2.90695 0.466068 7.01562 0.156536C7.87014 0.0921601 8.70211 0.176883 9.48674 0.38664C9.9736 0.517834 10.4452 0.697944 10.8904 0.920994C11.476 1.21535 12.0214 1.58507 12.5083 2.02198C13.3147 2.73644 13.2642 4.02044 12.3991 4.66157C11.7658 5.13374 10.8876 5.0989 10.2978 4.57011C9.93264 4.24277 9.51161 3.98105 9.05115 3.80556C8.70433 3.66791 8.33669 3.57687 7.95455 3.54424C7.72999 3.52294 7.49995 3.51844 7.26885 3.53585C5.01164 3.7059 3.31483 5.70079 3.48649 7.97939C3.4917 8.0486 3.49836 8.11907 3.50637 8.18943C3.68135 9.81266 3.77589 11.749 2.16041 14.3752L2.16186 14.3764ZM2.03976 8.3436C2.03177 8.25549 2.02264 8.17019 2.01641 8.08741C1.78381 4.99998 4.08153 2.3006 7.13818 2.07033C7.44855 2.04695 7.75961 2.05081 8.06436 2.07835C8.57464 2.12589 9.07536 2.24375 9.55452 2.43421C10.0236 2.61588 10.4634 2.85844 10.8646 3.16123C10.8488 3.22111 10.843 3.28706 10.8479 3.3522C10.8721 3.67384 11.1497 3.91497 11.4668 3.89108C11.7839 3.86719 12.0236 3.58709 11.9993 3.26545C11.9751 2.94382 11.6975 2.70269 11.3791 2.72668C11.2917 2.73326 11.2087 2.76135 11.136 2.80094C10.8496 2.58641 10.5449 2.39782 10.2247 2.23633L10.2193 2.23673C9.86373 2.0547 9.4853 1.90988 9.09649 1.80679L9.08543 1.80352C8.444 1.62938 7.77602 1.56916 7.10155 1.61997C6.29406 1.6808 5.52002 1.8988 4.80612 2.26922C4.11827 2.62676 3.50906 3.11349 3.00135 3.70994C2.49095 4.30661 2.10854 4.9878 1.86186 5.7311C1.60628 6.49963 1.50889 7.30539 1.57034 8.12101C1.62054 8.78735 1.75699 9.50452 1.97568 10.2551C2.08604 9.63942 2.10785 8.99631 2.03718 8.34516L2.03976 8.3436ZM14.2753 9.65739C14.3686 10.8964 13.4488 11.9771 12.2221 12.0695C11.5624 12.1192 10.9492 11.8719 10.5075 11.4425C5.48655 11.1397 2.85414 16.3196 2.85414 16.3196C3.90415 11.2276 9.32036 9.38784 9.91155 9.2C10.1616 8.32269 10.9286 7.65211 11.8839 7.58014C13.1106 7.48773 14.1818 8.41699 14.2753 9.65739ZM12.9411 9.7579C12.9038 9.26255 12.4757 8.88945 11.9853 8.9264C11.4949 8.96334 11.1262 9.39647 11.1635 9.89181C11.2009 10.3872 11.6302 10.7588 12.1206 10.7219C12.611 10.6849 12.9784 10.2532 12.9411 9.7579Z" fill="#0DD395"/>
</svg>
