<svg width="18" height="18" viewBox="0 0 18 18" fill="none" xmlns="http://www.w3.org/2000/svg">
<path d="M14.3257 17.2737L3.67433 17.2737C2.20246 17.2737 1 16.0713 1 14.5994L1 3.94808C1 2.47621 2.20246 1.27374 3.67433 1.27374L14.3257 1.27374C15.7975 1.27374 17 2.47621 17 3.94808L17 14.5994C17 16.0779 15.8041 17.2737 14.3257 17.2737Z" stroke="#0ED496"/>
<path d="M6.09895 12.1805C6.87431 12.9558 7.90593 13.3829 9.00326 13.3829C10.1006 13.3829 11.1256 12.9558 11.9076 12.1805C12.6829 11.4051 13.11 10.3735 13.11 9.27615C13.11 8.17882 12.6829 7.1472 11.9076 6.37184C11.1322 5.59648 10.1006 5.16937 9.00326 5.16937C7.90593 5.16937 6.87431 5.59648 6.09895 6.37184C5.32359 7.1472 4.89648 8.17882 4.89648 9.27615C4.89648 10.3735 5.32359 11.4051 6.09895 12.1805Z" stroke="#0ED496"/>
<path d="M13.9114 5.03633C14.3469 5.03633 14.7 4.6833 14.7 4.24781C14.7 3.81232 14.3469 3.45929 13.9114 3.45929C13.476 3.45929 13.1229 3.81232 13.1229 4.24781C13.1229 4.6833 13.476 5.03633 13.9114 5.03633Z" stroke="#0ED496"/>
</svg>
