<svg width="20" height="20" viewBox="0 0 20 20" fill="none" xmlns="http://www.w3.org/2000/svg">
<path d="M5.02375 6.85968L1.30029 6.85968L1.30029 18.7336H5.02375L5.02375 6.85968Z" stroke="#0ED496"/>
<path d="M15.096 6.60229C14.9587 6.58513 14.8129 6.57655 14.667 6.56797C12.5822 6.48218 11.4069 7.71761 10.9951 8.24953C10.8835 8.39538 10.8321 8.48118 10.8321 8.48118V6.89399L7.27161 6.89399L7.27161 18.7679H10.8321H10.9951C10.9951 17.5582 10.9951 16.3571 10.9951 15.1474C10.9951 14.4953 10.9951 13.8433 10.9951 13.1913C10.9951 12.3848 10.935 11.5269 11.3382 10.789C11.6814 10.1713 12.2991 9.86246 12.9941 9.86246C15.0531 9.86246 15.096 11.7242 15.096 11.8958C15.096 11.9044 15.096 11.9129 15.096 11.9129L15.096 18.8193H18.8195V11.0722C18.8195 8.42112 17.4725 6.85967 15.096 6.60229Z" stroke="#0ED496"/>
<path d="M3.162 5.32401C4.35605 5.32401 5.32402 4.35605 5.32402 3.16201C5.32402 1.96796 4.35605 1 3.162 1C1.96796 1 1 1.96796 1 3.16201C1 4.35605 1.96796 5.32401 3.162 5.32401Z" stroke="#0ED496"/>
</svg>
