<svg width="71" height="29" viewBox="0 0 71 29" fill="none" xmlns="http://www.w3.org/2000/svg">
<path d="M16.2057 22.1899H25.8381V24.8798H13.4483V16.631H24.7351V19.3387H16.2057V22.1899ZM18.9295 13.6722V10.9823H26.2241V13.6722H18.9295Z" fill="white"/>
<path d="M37.0567 22.1899V24.8798H28.4097V16.1785H31.1671V22.1899H37.0567Z" fill="white"/>
<path d="M47.9465 11.0003C48.5838 11.0003 49.1843 11.1198 49.748 11.3589C50.3117 11.586 50.8019 11.9029 51.2186 12.3093C51.6353 12.7158 51.96 13.194 52.1929 13.7439C52.438 14.2819 52.5605 14.8617 52.5605 15.4833C52.5605 16.1408 52.4318 16.7625 52.1745 17.3483C51.9171 17.9221 51.5617 18.4302 51.1083 18.8725C50.6671 19.3029 50.1463 19.6436 49.5458 19.8946C48.9576 20.1457 48.3264 20.2712 47.6524 20.2712H42.156V24.8977H39.3803V17.5634H47.6524C47.9465 17.5634 48.2223 17.5096 48.4796 17.4021C48.737 17.2945 48.9637 17.145 49.1598 16.9537C49.3558 16.7625 49.509 16.5413 49.6193 16.2903C49.7296 16.0392 49.7848 15.7702 49.7848 15.4833C49.7848 15.2323 49.7357 14.9991 49.6377 14.784C49.5519 14.5688 49.4232 14.3835 49.2517 14.2281C49.0924 14.0607 48.8963 13.9292 48.6634 13.8335C48.4428 13.7379 48.2039 13.6901 47.9465 13.6901H28.4097V11.0003H47.9465Z" fill="white"/>
<path d="M49.2617 22.7261C49.6039 23.0636 49.7715 23.4697 49.7715 23.9477C49.7715 24.4256 49.6021 24.8283 49.2617 25.1606C48.9249 25.493 48.506 25.6592 48.0088 25.6592C47.7771 25.6592 47.549 25.6146 47.3351 25.5238C47.1159 25.4364 46.9305 25.3131 46.7665 25.1606C46.6079 25.003 46.4796 24.8231 46.3887 24.6141C46.2925 24.4085 46.2479 24.1858 46.2479 23.9494C46.2479 23.7129 46.2942 23.4851 46.3887 23.2795C46.4796 23.0688 46.6079 22.8855 46.7665 22.7279C46.9305 22.5651 47.1177 22.4383 47.3351 22.3509C47.549 22.2636 47.7771 22.2156 48.0088 22.2156C48.5043 22.2156 48.9249 22.3869 49.2617 22.7279V22.7261ZM53.4911 21.2117L51.7605 25.5649H54.7476C55.2448 24.3211 56.2037 23.5091 57.3034 23.1356L57.0467 22.4743L53.4911 21.2117ZM63.7089 20.254L60.3083 11.7119H57.2695L53.8689 20.254L57.0467 19.1233L58.7916 14.597L60.5311 19.1233L63.7089 20.254ZM60.5329 22.4743L60.2762 23.1356C61.3759 23.5091 62.3383 24.3211 62.832 25.5649H65.8191L64.0885 21.2117L60.5329 22.4743ZM67.9757 11.729V25.5632H70.7578V11.729H67.9757Z" fill="white"/>
<path d="M10.3053 21.8333C9.88576 21.3033 9.44656 20.7327 9.01172 20.1315C8.4488 19.355 7.93005 18.5903 7.46095 17.8438C7.1173 18.1437 6.8005 18.4686 6.51209 18.7947C5.3387 20.124 5.29569 22.1165 6.3711 23.5304C8.70849 26.603 10.8159 28.6773 10.8159 28.6773L10.8175 28.6772C12.2683 26.7434 12.1854 24.0508 10.62 22.2098C10.5102 22.0785 10.4041 21.952 10.3035 21.8318L10.3053 21.8333ZM2.70203 17.8962C1.48643 15.5496 0.394226 12.7195 0.213971 10.3268C-0.17123 5.21372 3.62002 0.757921 8.68213 0.376561C9.73494 0.297246 10.76 0.401629 11.7267 0.660061C12.3265 0.821699 12.9076 1.0436 13.456 1.31841C14.1775 1.68108 14.8495 2.1366 15.4494 2.67489C16.443 3.55514 16.3807 5.13711 15.3148 5.92701C14.5346 6.50874 13.4526 6.46582 12.726 5.81432C12.276 5.41102 11.7573 5.08857 11.19 4.87236C10.7627 4.70277 10.3098 4.5906 9.83893 4.5504C9.56227 4.52416 9.27884 4.51861 8.99412 4.54006C6.21311 4.74957 4.12255 7.20739 4.33404 10.0147C4.34047 10.1 4.34867 10.1868 4.35854 10.2735C4.57413 12.2734 4.6906 14.6592 2.70024 17.8947L2.70203 17.8962ZM2.5516 10.4635C2.54176 10.3549 2.53051 10.2498 2.52282 10.1478C2.23625 6.34394 5.06717 3.01817 8.83312 2.73446C9.21551 2.70565 9.59877 2.7104 9.97423 2.74434C10.6029 2.80291 11.2198 2.94813 11.8102 3.18278C12.3881 3.40661 12.93 3.70545 13.4242 4.07851C13.4048 4.15228 13.3976 4.23354 13.4037 4.31379C13.4335 4.71007 13.7755 5.00715 14.1662 4.97772C14.5569 4.94829 14.8522 4.60319 14.8223 4.20692C14.7925 3.81064 14.4504 3.51356 14.0581 3.54311C13.9505 3.55122 13.8483 3.58583 13.7587 3.63461C13.4058 3.37029 13.0304 3.13794 12.6359 2.93898L12.6292 2.93948C12.1912 2.71521 11.7249 2.53678 11.2459 2.40976L11.2322 2.40574C10.442 2.19119 9.61898 2.11698 8.78799 2.17959C7.79312 2.25454 6.83947 2.52312 5.9599 2.9795C5.11243 3.42001 4.36185 4.01968 3.73633 4.75455C3.10749 5.48967 2.63633 6.32894 2.33242 7.24472C2.01753 8.1916 1.89754 9.18433 1.97324 10.1892C2.03509 11.0102 2.20321 11.8938 2.47265 12.8185C2.60861 12.06 2.63549 11.2676 2.54841 10.4654L2.5516 10.4635ZM17.6264 12.0821C17.7414 13.6087 16.6081 14.9401 15.0968 15.0539C14.284 15.1152 13.5286 14.8106 12.9843 14.2815C6.79823 13.9085 3.55495 20.2904 3.55495 20.2904C4.84862 14.0167 11.5217 11.75 12.2501 11.5186C12.5582 10.4377 13.5031 9.61151 14.6801 9.52285C16.1914 9.40899 17.5113 10.5539 17.6264 12.0821ZM15.9826 12.206C15.9367 11.5957 15.4093 11.136 14.805 11.1815C14.2008 11.227 13.7466 11.7607 13.7926 12.3709C13.8386 12.9812 14.3675 13.4391 14.9717 13.3936C15.5759 13.3481 16.0286 12.8163 15.9826 12.206Z" fill="white"/>
</svg>
